<svg xmlns="http://www.w3.org/2000/svg" viewBox="0 0 97.5 31.51"><defs><style>.cls-1{fill:#bf0811;}</style></defs><g id="Capa_2" data-name="Capa 2"><g id="Capa_1-2" data-name="Capa 1"><path class="cls-1" d="M89.4,15.76c0-6.5-5.54-13-11.78-15.75C85,2.49,92.7,7.37,97.18,15a1.62,1.62,0,0,1,.32.75h0a1.62,1.62,0,0,1-.32.75C92.7,24.14,85,29,77.62,31.51c6.24-2.69,11.78-9.34,11.78-15.75"/><path class="cls-1" d="M8.1,15.76c0,6.49,5.55,13.05,11.78,15.75C12.47,29,4.8,24.15.3,16.52a1.49,1.49,0,0,1-.3-.75H0A1.45,1.45,0,0,1,.31,15C4.81,7.37,12.48,2.49,19.89,0,13.65,2.67,8.1,9.34,8.1,15.76"/><path class="cls-1" d="M23.93,3.61a5,5,0,0,0-1.58,1.06,4.44,4.44,0,0,0-.94,1.48,4.6,4.6,0,0,0-.32,1.59V27.16h4.52V17.05h7.28v-4H25.61V8.67a1.39,1.39,0,0,1,.39-1,1.53,1.53,0,0,1,1.15-.42h5.71v-4h-6.8a5.58,5.58,0,0,0-2.13.42"/><rect class="cls-1" x="35.1" y="9.27" width="4.39" height="17.1"/><rect class="cls-1" x="35.1" y="3.12" width="4.39" height="3.99"/><path class="cls-1" d="M47,3H42.58V21.67a6.17,6.17,0,0,0,.16,1.21,3.62,3.62,0,0,0,1,1.68,5.9,5.9,0,0,0,2.15,1.32,10.63,10.63,0,0,0,3.75.54h.62V22.67H49.5a4.55,4.55,0,0,1-1.42-.19,1.89,1.89,0,0,1-.73-.41,1,1,0,0,1-.27-.42,1.68,1.68,0,0,1-.07-.5v-8.1h3.22V9.22H47Z"/><path class="cls-1" d="M62.88,21.28a1.22,1.22,0,0,1-.09.46.86.86,0,0,1-.27.38,2.13,2.13,0,0,1-.76.4,4.94,4.94,0,0,1-1.53.18,4.5,4.5,0,0,1-1.46-.18,2,2,0,0,1-.71-.39.94.94,0,0,1-.25-.4,2,2,0,0,1-.07-.49v-12H53.3V21.78A5.88,5.88,0,0,0,53.46,23a3.52,3.52,0,0,0,.95,1.65,5.69,5.69,0,0,0,2.14,1.3,10.62,10.62,0,0,0,3.75.53,10.62,10.62,0,0,0,3.75-.53,5.69,5.69,0,0,0,2.14-1.3A3.49,3.49,0,0,0,67.13,23a6.09,6.09,0,0,0,.17-1.2V9.27H62.88Z"/><path class="cls-1" d="M73.11,9.67a4.71,4.71,0,0,0-1.53,1,4.3,4.3,0,0,0-.91,1.43,4.22,4.22,0,0,0-.31,1.57V26.42h4.39V14.55a1.45,1.45,0,0,1,.41-1,1.47,1.47,0,0,1,1.11-.4h3.17l1-3.92H75.22a5.29,5.29,0,0,0-2.11.41"/></g></g></svg>