<?xml version="1.0" encoding="UTF-8"?>
<svg id="Ebene_1" data-name="Ebene 1" xmlns="http://www.w3.org/2000/svg" xmlns:xlink="http://www.w3.org/1999/xlink" viewBox="0 0 191.52 85.76">
  <defs>
    <style>
      .cls-1 {
        fill: url(#ITB_Gradient);
      }

      .cls-2 {
        fill: #fff;
      }

      .cls-3 {
        fill: #1a1a18;
      }
    </style>
    <radialGradient id="ITB_Gradient" data-name="ITB Gradient" cx="88.21" cy="47.88" fx="95.48" fy="33.65" r="37.25" gradientTransform="translate(-41.84 -4.77) scale(1.14 .97)" gradientUnits="userSpaceOnUse">
      <stop offset="0" stop-color="#fed061"/>
      <stop offset=".08" stop-color="#fdcf5b"/>
      <stop offset=".18" stop-color="#fdcc4b"/>
      <stop offset=".3" stop-color="#fdc731"/>
      <stop offset=".42" stop-color="#fcc10c"/>
      <stop offset=".46" stop-color="#fcbf00"/>
      <stop offset=".56" stop-color="#f9b001"/>
      <stop offset=".74" stop-color="#f28b06"/>
      <stop offset=".99" stop-color="#e84f0e"/>
      <stop offset="1" stop-color="#e84e0f"/>
    </radialGradient>
  </defs>
  <rect class="cls-2" width="191.52" height="85.76"/>
  <path class="cls-3" d="M163.8,34.86c0,1.32-.71,2.78-2.83,2.78h-5.2v-5.51h5.2c2.12,0,2.83,1.41,2.83,2.73M163.36,22.64c0,1.23-.66,2.56-2.78,2.56h-4.81v-5.12h4.81c2.12,0,2.78,1.32,2.78,2.56M171.52,35.3c0-4.41-2.6-6.04-3.88-6.84.97-.66,3.44-2.65,3.44-6.22,0-5.42-3.48-9.09-10.01-9.09h-13.01v31.41h13.67c5.61,0,9.79-3.27,9.79-9.26M143.06,20.03v-6.88h-23.16v6.88h7.72v24.53h7.72v-24.53h7.72ZM114.92,13.15h-7.72v31.41h7.72V13.15Z"/>
  <g>
    <path class="cls-3" d="M107.18,56.42h3.85c2.64,0,5.12.88,5.12,3.99,0,2.06-.95,3.29-2.94,3.69v.05c2.04.37,3.43,1.72,3.43,3.85,0,3.52-2.88,4.61-6.24,4.61h-3.22v-16.19ZM108.78,71.22h1.67c2.16,0,4.59-.58,4.59-3.15,0-2.88-2.48-3.18-4.85-3.18h-1.42v6.33ZM108.83,63.49h1.79c1.69,0,3.94-.44,3.94-3.01,0-2.34-2.16-2.67-3.52-2.67h-2.2v5.68Z"/>
    <path class="cls-3" d="M119.91,56.42h7.93v1.39h-6.33v5.77h6.01v1.39h-6.01v6.24h6.61v1.39h-8.21v-16.19Z"/>
    <path class="cls-3" d="M130.84,56.42h4.17c2.87,0,4.75,1.23,4.75,4.2,0,2.09-1.6,3.48-3.59,3.73v.05c1.3.16,1.58.86,2.09,1.95l2.76,6.26h-1.76l-2.34-5.47c-.93-2.09-1.62-2.16-3.15-2.16h-1.32v7.63h-1.6v-16.19ZM132.44,63.59h1.69c1.88,0,4.03-.72,4.03-2.97,0-2.64-1.88-2.81-4.08-2.81h-1.65v5.77Z"/>
    <path class="cls-3" d="M143.36,56.42h1.6v14.79h6.49v1.39h-8.09v-16.19Z"/>
    <path class="cls-3" d="M153.53,56.42h1.6v16.19h-1.6v-16.19Z"/>
    <path class="cls-3" d="M158.74,56.42h2.02l8.23,14.24h.05v-14.24h1.6v16.19h-2.16l-8.09-13.96h-.05v13.96h-1.6v-16.19Z"/>
  </g>
  <path class="cls-1" d="M53.6,9.29c-18.55,0-33.59,15.04-33.59,33.59s15.04,33.59,33.59,33.59,33.59-15.04,33.59-33.59S72.15,9.29,53.6,9.29Z"/>
  <g>
    <path class="cls-2" d="M81.7,42.45c.07.04.1.13.15.21.13.21.51.78.61.81.05.01.1.03.15.04.12.03.22.07.3.18.05.07.6.32.81.37.09.02.87-.23.93-.09.05.11.09.22.14.34.04.11.12.15.23.16.35.02,1.12.15,1.55.21.03-.59.05-1.19.05-1.79,0-8.41-3.15-16.08-8.33-21.91-.22.07-.59.18-.63.18,0-.03-.07-.26-.16-.33-.1,0-1.47.9-1.47.96,0,.06-.04.24-.06.25-.11.1-.36.11-.47.02-.07-.06-.3-.31-.24-.34.07-.05.15-.08.22-.12.04-.02.05-.09,0-.14-.07-.06-.88-.31-1.01-.33-.01,0-.03,0-.03.02-.02.02-.02.04.01.06.24.14.32.65.33.7,0,.06.27.26.28.36,0,.05,0,.1,0,.16,0,.05-.31.05-.41.03-.14-.03-.25-.03-.33.08-.04.05-.3.26-.36.34-.12.16.1.5.12.53.04.06.02.11-.02.15-.03.05-.67-.1-.89-.25-.04-.03-.3.11-.32.16-.02.06,0,.11.05.15.11.1.47.46.39.45-.16-.03-.62-.26-.72-.29-.07-.02-.12-.06-.14-.12-.04-.12-.25-.5-.25-.58.01-.21-.07-.31-.3-.39-.09-.03-.44-.23-.49-.32.15,0,.28.05.41.09.35.12.72.2,1.09.26.29.04.55.02.8-.07.04-.01.09-.03.11-.06.14-.14,0-.88-.18-.95-.07-.03-.14-.08-.2-.12-.08-.06-.15-.09-.26-.1-.15-.02-1.95-.59-2.01-.59-.08,0-.16-.01-.24-.03-.07-.01-.37-.28-.41-.24-.07.06-.69-.03-.7-.06,0-.03.45-.28.41-.3-.21-.09-.44-.15-.67-.2-.03,0-.25.09-.25.08,0-.04-.06-.22-.15-.24-.07-.02-.27.22-.28.25,0,.02-.05.02-.07.03,0,0-.03-.01-.03-.03-.02-.06-.21-.15-.23-.18-.03-.08-1.4.48-1.56.53-.02,0-.02.04-.01.07,0,.03.04.07.03.1-.01.04-.34.08-.33.08,0,0-.67.17-.7.24-.03.08-.03.15.06.2.03.02.1.12.05.14-.05.03-.1.07-.17.04-.08-.03-.16-.02-.24,0-.05,0-.09-.04-.08-.07.03-.06.05-.12.08-.18,0,0-.02-.02-.03-.03-.01,0-.03,0-.04,0-.11.09-.22.18-.33.27-.03.03,0,.07.03.1.05.05.03.09-.03.13-.02.01-.03.04-.04.06.06,0,.12,0,.17,0,.11-.02.22-.05.33-.06.06,0,.13,0,.19.02,0,0,.02,0,.03.01-.01,0-.48.28-.51.31-.02.04,0,.1,0,.15,0,.02-.15.29-.23.32-.09.04-.46.6-.45.65.03.08-.04.4-.06.48-.02.06-1.26,1.04-1.24,1.07.01,0-.23.3-.39.28-.11.07-.21.14-.32.21,0,0-.01.03,0,.04.02.1-.41.26-.42.29-.02.06.07.9.12,1,.03.07.08.14.1.21,0,.04-.12.22-.16.27-.03.03.24.24.21.28-.04.05-.15.28-.11.32.17.15.37.26.6.33.03,0,.78-.43.86-.49.13-.09.43-.28.43-.28.05.04.42,1.02.51,1.17.08.14.25.62.23.66-.18-.01-.32.07-.45.18-.04.04.06.29.09.34.01.02,0,.07-.01.08-.02,0-.29-.29-.45-.35-.01,0,.07-.29.19-.34.04-.02-.24-.31-.16-.47.03-.07.05-.15.04-.23,0-.04-.06-.09-.1-.09-.03,0-.43.3-.65.36-.02,0-.12.69-.13.72-.03.07.11,1.18,0,1.15-.14-.04-1.38.5-1.42.63-.15.44-.15.45-.52.72-.08.06-.4.39-.43.46-.03.1-.73.52-.83.51-.09,0-.32-.13-.38-.14-.05,0-.05.29-.04.39.01.07-.61.05-.68.06-.14.03-.49.19-.48.24.03.17,1.05,1.02,1.19,1.09.1.06.14.15.13.26-.02.27-.31,1.31-.4,1.27-.18-.07-1.07-.04-1.24-.08-.19-.05-1.13-.12-1.29.08-.03.03-.09.03-.15.05-.03.01-.06.03-.09.04-.06.03-.11.12-.08.18.09.17.11,1.36-.07,1.72-.05.09-.09.19-.12.29-.03.07-.03.15.02.2.16.18.19.7.21.73.01.03.03.08.06.08.13.04.79.07.84.15.07.1.13.21.2.31.07.1.23.14.33.08.08-.04.16-.09.23-.14.18-.13.38-.18.6-.16.15,0,.32-.01.48-.02.09,0,.82-.82.94-.93.06-.05.08-.13.03-.19-.2-.25-.09-.45.09-.65.05-.05.4-.5.64-.51.24-.11.42-.26.43-.55,0-.11.06-.41.07-.46.04-.13.2-.24.32-.22.24.05.92.23.99.14.14-.17.94-.64,1.1-.58.16.06.48.55.54.67.22.2,1.58,1.2,1.79,1.32.07.14.19.21.32.27.04.03.09.07.11.11.06.13.15.47.14.5-.05.15-.09.29-.3.33-.32.06-1.15.18-1.15.21,0,.03.78.51,1.01.62.04.02.18-.16.18-.21,0-.07.06-.41.18-.4.12,0,.21-.03.27-.13.09-.15.17-.31.25-.46.05-.1-.11-.58-.09-.64.03-.11.17-.16.26-.09.09.06.16.13.24.2.02.01.07,0,.09-.02.07-.09.07-.24-.02-.29-.28-.15-.51-.39-.83-.48-.1-.03-.17-.26-.19-.27-.06-.02-.14-.04-.21-.04-.17,0-.3-.09-.41-.21-.08-.09-.76-.87-.83-.93-.09-.07.13-.72.22-.75.02,0,.12.21.15.29.03.07.34.2.45.19.08-.01.14.04.16.11.07.23.24.38.44.5.16.1,1.01.51,1.09.6.1.1.19.21.29.31.06.05.09.85.26.96.01,0,.62.95.61.95,0,0-.06.11,0,.11v.02s0-.01.02-.02c0,.04.38.6.42.62.13.06.27.09.41.08.06,0,.19-.38.17-.54,0,0,.03-.03.05-.02.14.04.23-.07.34-.1.03,0-.06-.35-.19-.43-.06-.03-.14-.06-.18-.12-.13-.19-.4-.71-.39-.72.02-.04.46.15.53-.03.02-.06.14-.24.16-.23.07.03.39-.08.49-.07.15.02.26.14.26.28,0,.21.01.42-.05.63-.01.04.35.21.34.23-.06.1-.18.09-.27.14-.01,0-.03.02-.04.03-.02.04.32.23.36.27.06.06-.08.12,0,.16.09.06.57.51.64.49.15-.04.28,0,.37.13.03.04.2.13.23.13.17-.03.36-.03.47-.19.09-.12.2-.12.33-.09.12.03.23.09.32.18.14.14.31.15.49.12.2-.04.36-.13.48-.28.04-.05.11-.08.19-.05.13.05.26.04.4.05-.06.18-.46,2.37-.57,2.51-.05.06-.1.11-.18.11-.26,0-.98-.1-1.09-.11-.24-.02-.85.24-.96.21-.38-.08-2.64-.8-2.71-.81-.3-.07-.6-.06-.89.08-.18.09-.22.93-.26.98-.03.04-.07.08-.11.12-.1.09-1.7-.52-1.75-.63-.03-.06-.05-.13-.08-.2-.04-.11-.11-.18-.22-.22-.3-.11-1.78-.53-1.95-.58-.07-.03-.11-.18-.06-.23.07-.08.16-.15.23-.23.11-.12-.12-.69-.11-.72.03-.1.08-.2.12-.29.02-.05-.58-.28-.72-.24-.14.04-3.26.33-3.37.4-.19.1-1.31.68-1.48.61-.14-.06-.96-.1-1.02-.13-.03-.02-.36-.18-.42,0-.04.1-.08.2-.1.3-.05.25-.79.74-.96.85-.16.11-.57.94-.55,1.09,0,.11.01.21.02.32,0,.09-.38.66-.44.7-.09.06-.5.32-.64.34-.13.02-.22.1-.3.2-.04.06-.27.41-.39.48-.14.08-.21.21-.29.36-.13.25-1.07,1.89-1.08,2.01-.02.15.24.91.28,1.04.1.31-.16,1.63-.39,1.86-.02.02.22.95.29,1.09.05.12.46.32.55.35,0,.11,1.08,1.48,1.19,1.66.11.18,2.07,1.43,2.24,1.48.05.01,1.89-.31,2.09-.22.05.02.36.08.46.04.11-.04,1.93-.67,2.16-.63.05,0,.96.94,1.15.95.05,0,1.06-.16,1.13-.03.03.05.35.43.36.61,0,.11-.44,1.48-.44,1.51,0,.02.32.67.76,1.05.07.06.74,1.12.84,1.28.12.18.13.4.18.6,0,.04-.03.09-.04.13,0,.06.27,1.19.03,1.36-.11.08-.72,1.69-.72,1.85,0,.08,2.15,4.97,2.16,5.06,0,.02.34.16.5.21.04,0,1.77-.15,1.81-.17.14-.05,1.66-.55,1.9-.69.16-.09,1.4-1.07,1.49-1.23.06-.11.17-.65.25-.69.12-.07,1.06-.44,1.07-.55.02-.12,0-1.28.07-1.32.37-.23,1.74-1.02,1.87-1.08.3-.14.5-.34.65-.6.07-.12.2-1.39.27-1.56.03-.09-.33-1.02-.36-1.23,0-.04-.15-.63-.04-.81.08-.14.7-1.06.8-1.12.17-.09.31-.21.43-.35.31-.38,1.83-1.57,1.86-1.6.66-.49,1.2-1.08,1.56-1.82.13-.27.26-.55.47-.8.13-.16.21-.35.28-.55.1-.26.08-.53.12-.8,0-.06-.12-.14-.18-.12-.02,0-.03,0-.05.02-.2.16-2.61.69-2.67.66-.04-.03-.48-.53-.46-.58.1-.19.1-.24-.03-.35-.09-.07-.17-.15-.24-.25-.14-.21-1.32-1.09-1.38-1.39-.03-.15-.83-1.24-.83-1.35,0-.3-.09-.58-.14-.88-.04-.28-.65-.76-.66-.81-.02-.05-.03-.1-.03-.16.02-.18-.7-1.36-.79-1.75-.01-.07.52-.36.57-.29.04.05.45.71.64.96.11.14.31.66.42.69.21.07.35.22.42.43.03.06.32,1.2.53,1.36.08.06.18.11.26.17.13.11.25.24.29.41.05.21.8,1.29.75,1.51-.02.07-.03.14,0,.2.11.23.13.49.2.73.03.1.06.19.11.28.04.08,3.69-1.26,3.7-1.33.04-.17.15-.27.31-.32.21-.06,1.78-1.09,1.84-1.13.04-.02.09-.32.1-.43.01-.09.52-.64.66-.9.09-.17.07-.26-.07-.41-.09-.09-.17-.2-.24-.32-.05-.09-.13-.15-.23-.16-.13-.01-.26-.02-.39-.06-.07-.02-.15-.07-.21-.13-.12-.12-.2-.27-.22-.45-.02-.15-.04-.31-.05-.46,0-.02-.02-.04-.03-.04-.03,0-.07,0-.09.02-.19.22-.4.42-.56.67-.12.2-.83.27-.99.35-.07.03-.13-.01-.18-.06-.06-.07-.14-.57-.15-.75,0-.03-.02-.07-.04-.09-.02-.03-.22.11-.25.17-.04.08-.1.08-.15,0-.06-.08-.24-.61-.35-.74-.08-.09-.56-.73-.65-.92-.02-.04,0-.29.03-.36,0-.03.57-.09.65-.04Z"/>
    <polygon class="cls-2" points="42.58 71.58 42.59 71.58 42.58 71.58 42.58 71.58"/>
    <path class="cls-2" d="M46.16,57.45c-.07-.03-.49-.11-.6-.19-.13-.1-.84-.61-1.07-.74-.11-.06-1.09-.18-1.46-.29-.04,0-.24.06-.29.09-.04.02-.32-.4-.37-.4-.21-.02-2.03-.84-2.1-.84,0,0,0,0,0-.01,0,0,.04-.5-.02-.58-.07-.08-.57-.93-.64-1.01-.28-.27-1.01-.67-1.05-.7-.16-.09-1.08-.16-1.12-.19-.16-.1-.61-.53-.67-.59-.1-.11-.7-.49-.78-.5-.05,0-.72-.63-.73-.67-.02-.06.15-.13.14-.16,0-.01-.57-.09-.63-.16-.03-.03-.06-.01-.07.02-.02.04-.35.35-.54.2-.11-.09-.85-.21-.86-.23-.03-.11-.62-.54-.67-.54-.04,0-.53.45-.56.4-.03-.04.13-.46.09-.49-.04-.02-.3.03-.36.11-.08.1-.89.36-.93.43-.06.09-.37.71-.42.79-.02.04-.02.1-.03.15-.02,0-.05-.02-.07-.03-.08-.07-.86-.5-.99-.4-.04.03-.09.04-.13.08-.1.07-.19.11-.32.01-.21-.04-.36-.21-.49-.41-.08-.12-.14-.24-.21-.37-.02-.04-.04-.09-.04-.13-.02-.16.07-.56.06-.62-.01-.16.04-.76.03-.91,0-.03-.14-.13-.19-.15,0,0-1.5-.31-1.48-.33.1-.13.49-1.89.53-1.97.02-.04-.02-.34-.08-.34-.15-.01-.95.18-.98.3-.02.07-.14.66-.27.81-.03.18-.12.17-.24.11-.05-.03-.66.15-.74.04-.06-.09-.36-.32-.41-.44-.06-.16-.37-1.25-.37-1.34,0-.32.36-2.55.5-2.58.16-.04,1.34-.45,1.38-.37.09.19.47.09.53.05.02-.09.04-.18.05-.27,0-.1,1.68,0,1.72.05.08.12.43,1.51.51,1.77.04.12.12.22.19.31.06.09.19.07.24-.03.09-.2.15-.41.16-.64,0-.03-.26-1.66-.22-2.06,0-.06.02-.13.05-.18.14-.19,1.18-1.1,1.25-1.18.11-.13.68-.62.72-.66.03-.03-.03-.26,0-.35.06-.12.02-.8.04-.95,0,0,.13.27.15.28,0,0,.03,0,.03-.02.08-.12.28-.65.29-.7,0-.04.47-.49.5-.68.03-.17.57-.33.61-.35.01,0-.05-.17-.03-.16.24.03.47-.12.71-.12.03,0,.07-.05.11-.08.09-.08-.02-.65.03-.76.09-.19,1.23-.78,1.42-.82.07-.02.17-.23.21-.24.14-.05.29-.08.44-.12,0,0,.03.01.03.02,0,.03-.53.61-.52.67,0,.1.06.18.13.23.02.01,2.23-1.16,2.26-1.18.03-.02-.15-.57-.17-.55-.16.15-.29.32-.41.5-.05.07-.23.06-.28.05,0,0,.01,0,.01-.02,0,0-.4-.41-.47-.53,0,0-.05.02-.07.04,0,0,.07.22.11.31,0,0,0,0,0,0-.16,0-.23-.1-.24-.29,0-.16.09-.58.02-.6-.03,0-.07-.05-.04-.06.11-.05.41-.36.38-.42-.02-.06-.04-.11-.09-.15-.11-.09-.24-.14-.4-.09-.4.13-.8.23-1.16.5,0-.08.04-.14.1-.19.16-.15.33-.26.52-.33.12-.04.23-.1.29-.23.01-.03.04-.06.06-.08.09-.09.19-.18.29-.26.1-.07.2,0,.3,0,.41-.01.81.03,1.21.07.18.02.36-.08.54-.05.04,0,.09-.01.13-.03.04-.02.09-.04.13-.06.13-.08.24-.17.33-.29.07-.1.17-.15.28-.18.07-.02.15-.04.23-.04.23-.02.42-.15.6-.29.1-.07.21-.64.23-.7.01-.04-.14-.34-.3-.31,0-.04-.06-.27-.14-.28-.04,0-.09,0-.13,0-.01,0-.03,0-.04-.01.02-.02.04-.04.06-.05.04-.02.09-.03.13-.05.06-.03-.45-.44-.58-.51-.02-.01-.05-.04-.05-.06,0-.16-.11-.25-.21-.35-.05-.05-.08-.11-.12-.17-.04-.05-.03-.11.02-.17.06-.06.12-.11.18-.17.05-.06.07-.11.04-.17-.05-.1-.17-1.64-.16-1.84,0,0-1.11.88-1.16.91-.06.04-.14.08-.21.11-.08.03-.46-.45-.44-.53.03-.14.33-.82.44-.94.03-.03.01-.1-.02-.1-.13,0-.41-.15-.45-.18-.04-.02,0-.18-.02-.22-.06-.08-.15-.39-.18-.44-.05-.09-.38-.04-.43-.05-.15-.02-.55-.15-.62-.16-.15-.03-.35.08-.45.24-.06.1-.04.4-.1.47-.09.09-.19.18-.25.29-.07.12-.07.48-.07.53,0,.1-.54.6-.69.74-.07.07-.09.15-.05.24.03.05.11.63.11.78,0,.18-.15.35-.12.53,0,.02-.67.54-.9.65-.11.05-.22.11-.33.16-.08.04-.37,1.54-.39,1.58-.05.09-.37.36-.45.42-.04.03-.12.02-.14-.02-.01-.04-.02-.08-.03-.12-.02-.07-.18-.52-.25-.68-.02-.06.45-1.19.48-1.26.01-.03,0-.11-.03-.11-.21,0-.71-.08-.73-.13-.07-.14-1-1.08-1.11-1.14-.05-.03-.11-.04-.18-.01-.11.04-.22.1-.33.1.08-.11.26-.93.26-.98,0-.02-.02-.04-.04-.05-.05,0-.1,0-.14,0-.06,0-.08-.03-.08-.08,0-.04,0-.08.02-.12.03-.09,1.86-2.09,1.94-2.25.02-.04.2-.05.24-.06.12,0,.32-.36.33-.42.17,0,.33-.06.45-.26.03-.04.08-.06.11-.05.06.02,1.15-.65,1.15-.67.01-.05.32-.29.43-.37,0,0,0,0,0,0-.04.07-.09.15-.14.22-.15.24-.35.46-.48.7-.03.06-.08.09-.13.12-.04.02-.08.05-.11.08-.05.05-.06.14,0,.17.02,0,.05.01.07.02.05.02.07.05.05.11,0,.03-.02.05-.03.08-.03.1.02.14.12.1.06-.02.12-.03.16-.07.17-.16.4-.24.54-.44,0-.01.06-.03.08-.02.07.04.14.08.11.19-.01.05,0,.08.03.09.09.03.18.06.28.08.02,0,.06,0,.08-.02.06-.04.13-.09.18-.15.06-.05.05-.14,0-.16-.01,0-.02,0-.04-.01-.08-.02-.11-.07-.09-.16.03-.11.02-.2-.04-.27-.04-.04-.08-.09-.08-.14-.02-.15-.18-.18-.21-.32,0-.01-.04-.01-.07-.02-.07-.02-.07-.03,0-.09.06-.05.12-.1.17-.15.02-.01.02-.05.02-.07,0-.02-.03-.02-.06,0-.06.03-.1.05-.16.04-.04,0-.1,0-.15,0,0,0,0,0,0,0,.02-.02.04-.03.06-.05.13-.1.13-.1.1-.22,0-.01,0-.02,0-.03,0-.03.02-.06.05-.06.12-.03.24-.04.25.09,0,0,.01.02.02.02.17.06,1.13-.37,1.18-.39.12-.03.18-.11.26-.19.05-.06.22-.66.26-.73.05,0,.47-.3.51-.34.09-.07-.03-.48-.13-.47-.08,0-.08-.04-.07-.09,0,0,0,0,.01,0,0,0,0,0,0,0,.04,0,.84.21.87.2.03,0,.06-.04.1-.06.07-.01.46-.33.46-.37.07.03.14.04.21.07.02,0,0,.07,0,.09-.04.05-.11.11-.12.17-.01.05.04.09.04.14,0,.11.02.21.08.29.02.03-.15.11-.18.13-.03.02-.07.06-.09.09,0,.01.21.28.23.28.03,0,.25.59.2.72-.02.05-.06.1-.13.12-.09.03-.5.33-.63.41-.27.16-.35.19-.29.48,0,.01-.03.06-.04.06-.14,0-.29.06-.43.12-.15.06-.52-.06-.58-.09-.02,0-.06,0-.08.02-.09.09-.39.32-.42.37-.06.07-.07.17-.03.22.09.13.98.03,1.12.04.08,0,.12.04.14.09.04.11.07.65.09.7.05.11.13.19.24.24,0,0,0,0,0,0,0,0,.88.55.96.56.02,0,.06-.02.08-.04.06-.08-.07-.64-.22-.78-.06-.05-.05-.13-.03-.2.12.04.64.46.66.53.03.07.05.14.08.21,0,.02.04.03.06.03.03,0,.05-.04.04-.07-.04-.1,0-.2.09-.31.06-.08.3-.31.3-.38,0-.04-.04-.39.01-.54.03-.09-.2-.29-.25-.35-.03-.03.01-.36-.05-.45,0-.01,0-.04,0-.07.03,0,.33-.2.35-.24.02-.03.1-.04.11-.01.04.07.2.4.19.51,0,.05,0,.2.02.22.07.07.14.13.25.15.02,0,.07-.02.08-.03.05-.08.09-.15.12-.23.03-.05.61-.43.82-.53.07-.03.12-.1.17-.16.03-.03.04-.08.04-.11-.01-.09-.97-1.14-1.1-1.15-.05,0-.05-.05,0-.08.11-.09.42-.29.49-.29.03,0,.09-.02.12-.04.03-.03-.05-.23.05-.31.08-.06.06-.38.07-.48,0-.15-.41-.42-.44-.43.06-.08.03-.31,0-.34-.04-.05-.43-.09-.52-.07-.01,0-.03,0-.04,0-.02-.01.13-.12.17-.16.02-.02.02-.05.01-.06-.01-.02-.05-.03-.06-.06-.02-.04.08-.22.04-.25-.09-.07-.19-.13-.29-.19t0,0c.09,0,.18,0,.27,0,.03,0,.1-.04.11-.06.04-.11.08-.22.08-.32,0-.11-.46-.23-.56-.27-.03-.02-.1,0-.15.05-.05.04-.1.08-.15.12,0,0,0,0,0,0,0-.02.02-.04.03-.06.05-.11,0-.13-.11-.14-.06,0-1.59.63-1.59.77,0,.03,0,.06-.06.07-.08.02-.14.06-.21.09-.08.04-.12.08-.13.14,0,.06,0,.12,0,.18,0,.02,0,.04-.01.06,0,0-.02.02-.03.03-.03,0-.06.02-.07.02-.08-.07-.06-.26.04-.36,0,0,.02-.02.03-.03.04-.04.08-.08.12-.11.1-.08.92-.73,1.17-.81.02,0,.06-.03.07-.05.02-.02.03-.04.03-.05-.02-.03-.04-.06-.08-.07-.23-.06-.5,0-.79.12-.14.06-.27.13-.4.2-.21.1-.35.26-.57.36-.03.01-.65.55-.8.7-.08.08-.07.15.02.17.08.03.17.04.25.07.03,0,.04.03.05.06,0,.01,0,.04-.03.06-.02.01-.06.03-.08.03-.06-.02-.11-.06-.16-.08-.08-.03-.23.04-.28.13-.03.06-.05.11-.06.16-.03.08.02.13.05.19.02.05.68.24.67.31,0,0,0,0,0,0,0,0,0,0,0,0-.03,0-.06.02-.08.03-.12,0-.47.51-.5.53-.06.04-.12.09-.18.13-.13.02-.38.31-.43.36-.04.04-.1.07-.15.07,0-.04,0-.08-.06-.09-.04,0-.4.49-.43.48-.03-.01.06-.53.22-.63.06-.04.19-.43.15-.55,0-.02-.5.39-.57.43-.01,0-.03.01-.04.02-.03,0,.14-.27.17-.38.02-.06.08-.07.13-.09.09-.04.12-.1.07-.13-.05-.04-.27-.1-.31-.13-.02-.02-.02-.03,0-.06.1-.07.51-.3.52-.36.03-.2.32-.67.32-.7,0-.12.08-.25.07-.35,0-.04.04-.07.1-.1.12-.06.66-.45.68-.44.05.01.1.03.14.05.06.02,1.22-.61,1.27-.64.06-.05.07-.13.02-.15,0,0-.02,0-.03,0-.16,0-.68-.14-.8-.11-.04,0-.86.57-.98.67-.06.06-.36.43-.48.56-.03.03-.29.17-.39.22-.08.04-1.15.98-1.18,1.06-.02.08,0,.27,0,.31h0s0,0,0,0c-.02,0-.42-.23-.45-.21-.06.04-.84.55-.83.57.1.07.21.13.22.27,0,0,0,0,0,0-.07.02-.31.06-.37.13-.03.04-.25.28-.3.3-.06.03-.1.03-.15.02-.04-.01-.58.03-.62,0-.06-.03-.39-.32-.38-.37,0-.1.06-.56-.03-.54-.18.05-.36.09-.53.12-.08.01-.15.08-.21.15-.04.05-.04.11,0,.14.02.02.15-.04.17-.05.08-.02.38-.11.46-.14.01,0,.03.02.03.03,0,0-.02.03-.03.03-.08.03-.84.38-.9.46-.08.11-.26.42-.29.44-.03.02-.02-.35-.03-.41,0-.06-.01-.12-.02-.17,0-.03-.05-.06-.09-.04-.05.02-.1.03-.15.05-.03,0-.05,0-.08.02-5.21,5.7-8.44,13.25-8.62,21.54.06.21.12.41.21.59.02.05.06.09.06.15.02.14.08.23.15.32.04.06.09.12.13.18.02.03.03.08,0,.12,0,.03-.02.05-.03.08-.03.07-.02.15.02.2.05.06.11.13.16.18.07.05.11.12.12.24,0,.05.04.1.06.15.31.49.52,1.38.51,1.42,0,.06-.07.44-.01.58.05.12.37.41.43.53.06.12,1.43,1.07,1.54,1.12.37.17.37.17.72,0,.1-.05.2-.03.29.08.19.23.41.41.58.68.07.11,1.09.56,1.27.56.04,0,.67.96.65,1.05-.03.15.38.34.42.37.09.09.4.54.52.57.04,0,.08,0,.11,0,.12-.05.5.27.59.36.09.09.2-.27.23-.29.09-.07.27-.31.31-.29.12.07.82,2.13.8,2.17-.06.14-.69.95-.75,1-.02.01-.13,1.04-.09,1.18.04.12.14.2.25.25,0,0,.02,0,.03-.02.01-.02-.11.29-.16.35-.08.09.07.85.14.9.08.06.17.12.26.17.1.06,2.02,2.83,2.11,2.91.29.28.62.45.94.68.06.04,1.08.68,1.28.83.06.04.59,1.37.6,1.61,0,.03.32.83.46,1.18.04.09.57,1.63.69,1.76.05.06.27.62.28.69.04.22.15.72.12.74-.06.04.85,1.16.93,1.21.05.03,0,.08,0,.15,0,.02,0,.05.03.07.07.08.15.16.23.23.03.03.12.04.14.03.03-.02.05-.05.02-.09-.04-.05-.08-.1-.1-.16.28.26.81.81.81.87,0,.02-.01.02-.05.01-.01,0,.07.21.15.22.05,0,.11.04.13.07.02.05.05.09.11.15-.06,0-.13,0-.15.03-.02.02-.03.03,0,.06.03.03.25.16.3.18.02,0,.42.18.49.2,0,0,.65.36.68.36.13,0,.37.16.35.16,0,0-.02,0-.02,0,.02,0,1.07.18,1.07.18.04,0,.05,0,.06,0,0,0,.31.06.34.07.1,0,.19.02.27.05.05.01.94,0,1,0,.05,0,.05-.01.03-.03-.01,0,0,0,.04,0,.05,0,.12,0,.15,0,.06,0,.1-.03.15-.04,0,0-.01,0-.02,0-.06-.01-.1,0-.15-.01-.19-.02-.63-.07-.66-.08-.11-.03-.74-.21-.91-.21-.04,0-.09,0-.13,0,0-.02,0-.05.1-.03.01,0,.03,0,.04,0,.02,0,.04,0,.05,0,0,0-.01-.02-.03-.02-.1-.03-.45-.17-.53-.21-.09-.04.04-.56,0-.59-.02-.02-1.05-.42-1.01-.49.01-.03.21-.09.28-.11.02,0,.04-.01.03-.02-.03-.06-.23-.36-.19-.41.03-.03.27-.11.22-.16-.04-.04-.08-.08-.13-.12-.03-.02-.68-.28-.69-.3-.03-.03.56.08.66.08.11,0-.11-.52-.12-.54-.05-.06,1.29-.18,1.26-.28-.02-.06-.76-.88-.86-.95.2.03.4.04.62.13.04.02.29.04.38.05.21.01.42-.3.49-.35.08-.06.08-.42.08-.52,0,0,0,0,.01,0h0c.22-.02.31-.11.31-.27,0,0,0-.02,0-.02,0,0,0,0,0,0,0,0,0,0,0,0,.08,0,.21-.5.32-.68.07-.12-.22-.91-.05-1.05.07-.06.79-.45.85-.51.05-.05.12-.08.12-.16,0-.01.24-.02.32-.02.09,0,.58,0,.66-.11.04-.05.19-.37.22-.42.06-.13.11-.27.18-.39.06-.1.08-.2.03-.33-.03-.09-.05-.19,0-.27.09-.15-.01-.93-.05-1.15-.03-.15-.07-.31-.09-.46,0-.07.45-.67.46-.71.04-.12.42-.51.52-.62.1-.11.27-.89.21-1.01-.09-.2-.37-.68-.41-.7Z"/>
    <path class="cls-2" d="M44.5,21.08s0,0,.01,0h0s0,0-.01,0Z"/>
    <path class="cls-2" d="M53.86,20.39s-.03-.02-.03-.02c0,0-.38,0-.53-.09-.12-.06-.46,0-.49-.01-.01,0-.03-.02-.03-.02,0,0,.17-.1.25-.12.1-.03.16-.1.16-.17,0-.07.1-.27.1-.27,0,0,.13.3.23.41.06.08.42.11.48.11.17,0,.19-.02.22-.13.02-.11.03-.21.06-.32.03-.11-.25-.6-.39-.68-.06-.03-.1-.45-.1-.45,0,0,.31.46.42.48.04,0,.11,0,.12-.04.01-.06.12-.26.17-.3.04-.04.53-.43.56-.46.03-.04.05-.08.07-.12.02-.05-.37-.21-.37-.22.02-.03.58-.05.63-.05.16-.01.26-.18.16-.24-.06-.04-.13-.2-.16-.21-.03-.01-.05-.02-.03-.04.02-.02.04-.03.08-.03.04,0,.09,0,.12,0,.07-.02.11-.49.16-.53.04-.02.03-.06,0-.07-.06-.03-.17-.01-.21-.06h0s0,0,0-.01c.08-.05-.07-.15-.07-.15.08-.05.38-.16.41-.15.01,0,.03,0,.03.01.07.05.18.09.13.2-.03.08-.02.16.01.24,0,0,.03,0,.03,0,.02-.03.05-.06.05-.08,0-.1.04-.2.15-.28.09-.07.12-.15.14-.23,0-.03-.04-.09-.1-.09-.05,0-.11,0-.17-.02-.04,0-.07-.02-.09-.04,0,0-.01-.02,0-.02.02-.01.04-.03.06-.03.17-.02.19-.03.14-.1-.03-.04-.06-.07-.11-.09-.04-.02-.07-.04-.1-.06,0,0,0-.02.02-.02,0,0,.03-.01.04-.01.11.03.19,0,.24-.07.07-.08.9-.84.98-.89.03-.02,1.1-.48,1.18-.51.04-.02.09-.03.14-.04.22-.06.24-.1.1-.17-.02,0-.03-.01-.04-.02-.14-.07-.34-.09-.57-.09-.13,0-1.25.13-1.17.07.02-.01.05-.03.07-.04.18-.11.04-.13-.21-.12-.01,0-.03,0-.04,0-.02,0-.06.01-.07.02-.04.02-.38-.03-.41-.03-.09,0,.04-.05.21-.06.16,0,.32-.02.48-.03.19,0,.34-.04.49-.08.08-.02.11-.06.06-.07-.08-.02-.16-.04-.24-.06-.14-.03-.42-.13-.46-.12-.26.02-2.06-.12-2.15-.1,0,0-.01,0-.02,0h-.01s0,0,0,0c0,0,0,0,.01,0-.01,0-.02,0-.03.02-.1,0-.15,0-.21-.02-.02,0-.04,0-.07,0,0,0-.02,0-.02,0,0,0,0,.02,0,.02,0,0,0,.01-.03.02-.03,0-.06,0-.07,0-.1,0-1.33.12-1.42.12-.03,0-.09.01-.1.02-.01.01-.03.02-.04.03-.02.04-.1.32-.14.32-.06,0-.25-.26-.27-.29-.01-.02-.05-.03-.11-.04-.06,0-.78.26-.8.27-.04,0,.05-.06.05-.08,0-.04.06-.08.09-.12,0-.01,0-.02,0-.03,0,0-.01,0-.02,0-.03,0-.05,0-.07,0-.06.02-.08.04-.11.06-.03.02-.03.04-.06.06-.04.02-.11.03-.16.05,0,0-.02,0-.03,0,0-.01-.01-.03.02-.04.06-.03.12-.06.17-.08.05-.03.09-.05.1-.08,0-.01-.05-.03-.09-.02-.06,0-.96.06-1.15.07-.07,0-.13.02-.16.04-.02.01-.02.03-.04.04,0,0-.8.19-.87.21-.02,0-.04.02-.07.03-.05.02-.12.02-.14.01-.06-.03-1.44.26-1.57.32-.09.04-.09.08,0,.09.08.01.17.02.26.03,0,0,0,.02,0,.03,0,.02-.02.03-.06.05-.07.02-.51.23-.62.27-.05.02-1.04.1-1.14.11-.19.02-.88.15-1,.22-.09.05-.13.09-.09.13.06.05.1.18.1.18,0,.04,0,.08.03.12.02.04.52.03.61.02.02,0,.05,0,.06.01.01,0,.02.02.01.03-.01.01-1.02.1-1.11.12-.13.04-.24.14-.19.19.06.04.08.11.18.14.05.01.04.02-.03.04-.06.02-.24.11-.24.13,0,.1.07.18.19.24.08.04.31-.09.38-.08.05,0,.5.08.7,0,.01,0,.03,0,.04,0,.14.03.74.34.76.37,0,.02-.49,1.58-.48,1.6,0,.02-.45.57-.43.58,0,0-.21.24-.21.24l-.03.15h.43s.31-.08.31-.08c0,0-.13.18-.19.23-.04.03,0,.08,0,.08l.04.23s-.45-.06-.52-.07c-.09,0-.2.13-.2.13v.03s.01.07,0,.1c-.02.03-.35.3-.36.37-.03.14.13.32.13.32h.04s.48-.07.48-.07v-.43s.54.14.54.14l-.11.17h0s0,0,0,0c0,0-.86.61-.93.62-.03.08-.79,1.19-.86,1.25-.09.08-.02.93-.08,1.13,0,.03.16,1.79.16,1.79-.01.03-.03.06-.02.08.04.06.1.12.15.18.14,0,.19.09.17.22,0,0,.05.03.07.03.09-.02.19-.04.28-.06.05-.01.09-.03.14-.05.09-.03.17,0,.16.07,0,.12,0,.22.1.3.03.02.03.08.06.11.03.03.07.07.1.06.12-.02.2.04.31.04.07,0,.16-.05.21-.11.13-.16.51-.88.51-.88l.28-.52.58-.55.18-.42.23-.3-.03-.07.57-.38.51-.05.92-.38.45-.25.43-.42.83-.37,1.11-.26s1.48-.64,1.8-.83c.02-.01.02-.04.02-.07Z"/>
    <path class="cls-2" d="M80.13,59.94c-.08.06-.13.14-.15.23-.02.09-.08.16-.17.2-.02.03-.03.06-.05.07-.09.06-.2.09-.23.21-.03.13-.15.22-.29.29-.13.06-.24.17-.37.23-.13.06-.28.09-.42.12-.02,0-.03,0-.05.01-.14.05-.27.1-.41.15-.06.09-.11.18-.18.26-.14.17-.16.34-.12.5.01.05.03.1.05.15.05.15,0,.29-.12.41-.13.13-.23.27-.37.4-.16.15-.24.33-.18.51.03.08.02.16,0,.25-.02.07-.03.15-.03.22,0,.05.01.09.04.13.09.14.25.21.42.26.1.03.21-.04.31-.08.08-.02.15-.03.23-.04.17-.02.3-.09.39-.21.07-.09.14-.18.2-.27.14-.22.27-.45.43-.68.24-.33.41-.69.65-1.03.07-.1.11-.2.15-.31.05-.13.11-.26.19-.39.07-.11.07-.25.25-.31.06-.06.09-.13.1-.2,0-.12,0-.25.01-.37.04-.28-.03-.52-.2-.73-.02-.02-.05-.02-.08,0Z"/>
    <path class="cls-2" d="M75.96,19.15c.06,0,.11-.02.17-.03.1,0,.19.03.25.09.04.03.08.08.1.12.02.07.26.16.45.22-.44-.44-.9-.87-1.36-1.28-.01.11.18.81.26.85.04.02.09.03.13.03Z"/>
    <path class="cls-2" d="M41.09,14.87c.11-.02.32.02.38,0,.05-.02.15-.05.15-.05,0,0,.01,0,.01,0,.11-.03.5-.15.6-.18,0,0,0,0-.01,0h0c-.1.07-.22.13-.38.17-.1.03-.17.08-.22.13-.03.02-.01.06.03.06.02,0,.05,0,.07,0,.11,0,.13.02.08.08-.02.03-.03.06-.06.08-.04.03-.08.07-.15.1,0,0-.03,0-.04,0-.01,0-.03,0-.03,0,.02-.05.05-.1.06-.14,0-.02-.02-.04-.06-.05-.06-.02-.16-.01-.26.01-.03,0-.06.02-.08.03-.03.02-.06.04-.08.06-.07.08-.09.16-.13.25-.04,0-.08.01-.11.01-.21-.01-.45.04-.69.12-.01,0-.03,0-.04.01-.04.02-.08.03-.12.05-.06.03-.33.12-.29.14.08.05.71.26.74.27.05.01.39-.11.44-.09.09.05.21.07.39.04.02,0,.12.17.17.16.1-.02.92-.26.93-.26.1-.07.11-.12,0-.14-.03,0,.79-.42.81-.44,0,0,.13-.07.18-.06.11.02.25,0,.38,0,.06,0,.12-.1.12-.12.11,0,.63-.21.69-.24.08-.04.45-.27.4-.28-.03-.01-.08-.02-.12-.02,0,0-.02,0-.02,0,.02,0,.16-.05.19-.05.11,0,.22,0,.34,0,.08,0,.21-.08.23-.09.01,0,.07.03.09.03.13.03,1.5-.35,1.57-.36.22-.03,1.09-.18,1.3-.23.03,0,.06-.02.08-.04.03-.02,0-.02-.07-.03-.04,0-.08-.01-.12-.02.03-.02.06-.03.13-.03.19,0,1.56-.22,1.59-.24.03-.02.02-.04-.05-.04-.05,0-.06-.01-.03-.03.04-.02.08-.04.11-.06,0,0,0-.01-.02-.01-.07,0-.14-.01-.22-.02-.07,0-2.7-.15-2.77-.13-.08.02-.57.1-.62.11-.05.01-.15.01-.15,0,0-.03-.56-.02-.56-.01-.01.02-.02.05-.02.07-.06,0-.3-.03-.31-.03-.01,0-1.03.05-1.07.05-.08.02-.03.06-.01.06-.01.01-.46.22-.48.24-.03.03.19.15.21.16.05.03.15.05.27.06.1,0,1.34-.06,1.33-.06-.04.02-.03.04,0,.04.06.01.16,0,.19.02-.26,0-1.05.09-1.16.08-.06,0-.14,0-.21,0-.04,0-.13.02-.15.04-.05.04-.2-.04-.38-.08,0,0-.02,0-.02,0-.04-.01-.12,0-.18.01-.11.03-.13-.05-.1-.07.04-.04-.07-.03-.09-.05-.02-.02-.09-.03-.12-.04-.02,0-.02-.02,0-.03.04-.04.1-.07.15-.11.05-.03.11-.06.17-.09.09-.05.06-.08.01-.1-.03-.02-.13-.02-.22-.01-.05,0-.05.07-.02.07.02,0,0,.01-.02.02-.01,0-.03,0-.04,0-.06,0-1.47.34-1.5.35-.21.08-.36.18-.56.27-.07.03-.07.07-.03.09.04.02.09.03.17.03.03,0,.06,0,.08.02,0,0,0,.02-.01.03-.01.01-.04.02-.07.03-.03,0-.05,0-.07,0-.17,0-.29.03-.41.1-.1.06-.18.12-.25.19-.11.1-.09.16.02.21.03.01.07.03.12.02Z"/>
    <path class="cls-2" d="M30.1,20.11c.06-.03.13-.06.19-.1.09-.05.18-.08.26-.07.09,0,.2-.03.3-.1.05-.03.1-.06.15-.08.03-.02.05,0,.05.01,0,0,0,.02,0,.03,0,.06.04.08.08.1.06.03-.01.12.03.16,0,0,.01.02.02.02.1.02.55.06.69.01.07-.03.33-.48.36-.5.04-.03.45,0,.53-.09.06-.07.09-.13.07-.19-.01-.03-.14-.55-.14-.63,0-.05.03-.1.1-.15.16-.1.39-.45.43-.5.14-.15.29-.29.43-.43.05-.05.11-.09.18-.12.19-.08.38-.18.56-.28.05-.03.09-.07.12-.11.07-.1.05-.15-.06-.17-.06,0-.55.15-.57.2-.02.06-.05.12-.08.18,0-.01,0-.03,0-.04,0-.04-.01-.08-.07-.09-.03,0-.06,0-.09-.02-.08-.04-.17,0-.24.07-.06.04-.12.09-.16.13-.12.12-.23.25-.37.37-.14.12-.22.26-.34.38-.01,0-.02.02-.03.03-.01,0-.02.02-.03.03-.03.03-.08.05-.11.04-.03,0-.04-.04-.02-.06.09-.11.18-.22.29-.33.15-.15.24-.29.26-.43,0-.02-.01-.04-.02-.06-.01-.02-.1,0-.13.03-.06.07-.11.13-.16.2-.03.03-.07.06-.1.05-.03,0-.07,0-.11,0-.94.79-1.84,1.64-2.69,2.53.05,0,.09,0,.13,0,.09.02.18,0,.29-.06Z"/>
    <path class="cls-2" d="M58.24,27.83s-.05.03-.09.03c-.15,0,.03.4-.02.55-.02.05.03.36,0,.41.02.02.34.13.35.11,0,.03-.01.25-.03.33-.02.09.17.17.19.17.09,0,.18-.03.25,0,.09.03.27.44.25.53-.06.25-.52.26-.51.3,0,.13-.03.26.09.37.04.04.02.14-.03.18-.05.04-.27.37-.25.37.21.03.4.1.58.2.01,0,.02.02.03.03-.02,0-.86.65-.86.67,0,.02.03.03.04.03.05,0,1.96-.43,2.17-.44.2,0,.52-.35.48-.38-.03-.02-.06-.03-.09-.05-.06-.04.11-.31.17-.41.12-.22,0-.45-.26-.48-.08,0-.17,0-.25-.01,0-.05-.65-1.01-.7-1.18-.07-.23-.5-.51-.48-.55.03-.07.26-.5.31-.65.02-.07-.19-.19-.23-.19-.12,0-.42-.08-.41-.09.06-.07.13-.15.19-.22.02-.02.02-.06.02-.09,0-.04-.06-.08-.11-.08-.13,0-.27.02-.41.03-.07,0-.33.38-.42.52Z"/>
    <path class="cls-2" d="M64.16,15.69s0,.09,0,.13c0,.03.08.24.12.27.12.12.61.43.7.48.04.02.14,0,.16-.02.02-.02.04-.03.04-.05-.01-.12.33-.84.31-.96,0-.01,0-.03.01-.04.03-.05.39.16.47.24.04.04,0,.2-.01.24-.01.03.5.13.55.11.17-.08.25-.17.28-.29,0-.01-1.07-.56-1.1-.62,0,0-.04-.02-.07-.03-.05,0-.11,0-.17-.02-.11-.02-.6-.35-.69-.36-.05,0-.1-.03-.15-.04-.05-.01-.17.12-.19.16-.02,0-.05,0-.07,0-.1-.03-.67-.04-.78-.03-.08,0-.18.1-.2.12-.07.08-.04.15.09.21.03.02.53.47.68.51Z"/>
    <path class="cls-2" d="M38.07,16.64c-.05.08.31.18.44.14.03,0,.06-.02.08-.03.03,0,.04,0,.02.03-.02.03-.06.06-.06.08,0,.04.03.06.07.06.12.01,1.33.14,1.45.12.08-.01.33-.05.37-.07.09-.05.69-.52.58-.58-.03-.02-.05-.04-.05-.07,0-.05-.94-.03-1.12,0-.11.02-.23.05-.24-.03,0-.03-.07-.03-.11-.03-.13-.02-.23-.23-.29-.24-.04,0-.03,0,.01-.03.05-.02.29-.06.38-.08.03,0,.09-.05.08-.06,0-.01,0-.03-.02-.03-.05-.03-.18-.22-.24-.22-.05,0-.05-.17-.07-.19-.07-.04-.1-.09-.2-.12-.09-.02-.45.11-.46.14-.02.08.27.37.23.43-.03.05-.07.1-.1.15-.04.06-.36.24-.44.28-.18.11-.27.23-.33.36Z"/>
    <path class="cls-2" d="M34.4,16.21c.12-.02.23-.03.36-.06.02,0,.05,0,.06,0,.07.01.14.03.2.05.05.02.1.02.17,0,.05-.01.11-.02.16-.03.08-.01.16-.04.24-.08.17-.09.33-.18.5-.25.05-.02.09-.06.14-.09.1-.07.12-.15.05-.18-.01,0-.04,0-.07,0-.06.01-.11.03-.16.07-.03.02-.06.03-.07.02-.02-.03-.11-.03-.03-.1-.01-.03-.03-.06.06-.1.05-.03.09-.06.12-.09.05-.07.12-.13.23-.2.03-.02.03-.04.02-.06-.02-.02-.07-.02-.13,0-.14.05-.27.1-.41.15-.08.03-.12.07-.14.1-.02.02-.03.04-.03.07-.01.04-.07.07-.15.1-.01,0-.03.01-.04.01-.08.03-.11.07-.12.11,0,.01,0,.03-.01.04-.01.03-.09.07-.13.07-.1,0-.2-.01-.29-.02-.02,0-.02-.03,0-.03.05-.03.06-.06.08-.08-.32.22-.64.44-.95.67.06-.02.12-.01.19-.04.05-.02.11-.04.16-.05Z"/>
    <path class="cls-2" d="M52.83,24.05c0,.08,1.02.31,1.18.34.06.01.13,0,.19-.02.25-.09,1.43-.62,1.47-.67.05-.06.32-.57.31-.58,0-.01,0-.03-.02-.03-.05-.03-.33-.48-.37-.47-.07.02-.13.02-.17-.03-.08-.07-.16-.06-.25,0-.15.11-1.07.26-1.09.25-.03-.03-.17-.11-.2-.07-.05.05-.05.1-.05.16.01.09-.19.18-.22.19-.05-.06-.19-.47-.22-.5-.1-.08-.72.3-.81.41-.03.03.44.08.54.11.04.01.04.03.01.07-.05.06-.07.12-.18.13-.11,0-.18.21-.11.23.04,0,.19.16.22.23,0,.02-.24.16-.24.23Z"/>
    <path class="cls-2" d="M35.78,17.03s0,0,0,0c-.02-.02-.03-.04-.05-.05-.02-.01-.05-.03-.08-.02-.06,0-.92.72-.93.7-.03-.05-.02-.11-.02-.17,0-.04-.04-.05-.09-.04-.15.02-.28.09-.35.2-.05.08-.1.16-.15.24-.02.03-.01.06.02.06.07.02-.02.65.02.7.02.03.08.03.13,0,.08-.05.64-.28.72-.32.04-.02.57-.48.59-.55,0-.05,0-.09.01-.14.01-.06-.02-.09-.08-.11-.02-.01-.01-.03.03-.04.08-.03.66-.35.66-.38,0-.04-.02-.06-.07-.06-.08,0-.17,0-.25,0-.04,0-.08-.01-.11-.02h0s0,0-.01,0Z"/>
    <polygon class="cls-2" points="40.18 33.11 40.19 33.12 40.19 33.12 40.18 33.11"/>
    <path class="cls-2" d="M39.65,33.59c.09.06.16.13.27.14.05,0,.31-.56.27-.61,0,0-.01,0-.02,0,0,0,0-.01.01-.02-.05-.06-.05-.34,0-.39,0,0,.01-.03,0-.04,0-.04-.05-.4-.07-.44-.02-.04-.16-.15-.21-.12-.04.03-.34.13-.44.1-.06-.01-.11-.6,0-.7.11-.09.25-.38.26-.41,0-.03-.42.09-.53.22-.24.28-.86,1.19-1.03,1.26-.06.03-.01.23-.06.28-.06.06-.17.3-.13.3.04.01,1.16.08,1.27.12,0,0-.16.25-.15.27.01.02.05.04.07.04.06,0,.54-.35.54-.34-.02.08-.06.31-.04.33Z"/>
    <path class="cls-2" d="M67.03,14.65c-.08-.02-.15-.04-.23-.04-.15,0-1.34-.03-1.42-.08-.02,0-.39.2-.38.22.05.1,1.07.3,1.15.34.1.05.9-.37.88-.44Z"/>
    <path class="cls-2" d="M38.3,15.53s0-.05,0-.08c0-.02-.43-.07-.55-.04-.07.04-.25.23-.29.29,0,0-.02.02-.03.02-.02,0-.03,0-.03-.02,0-.06.02-.11.02-.16,0,0-.03-.02-.05-.01-.02,0-.06.01-.08.02-.1.07-.06-.23-.06-.25,0-.02-.09-.02-.13,0-.05.03-.09.06-.13.09-.06.05-.36.57-.27.57.1,0,.21,0,.32,0,0,0,.02,0,.02,0-.02.02-.04.04-.06.04-.06.02-.11.03-.17.04-.07.02-.27.27-.23.27.09.01.17.02.26.03.09,0,.23-.04.31-.1.02-.02.04-.03.05-.05.08-.07.17-.09.26-.11.06-.05.12-.1.19-.15.08-.05.17-.1.25-.14.01,0,.03-.01.04-.02.11-.07.22-.15.32-.22.02-.01.03-.03.03-.04Z"/>
    <path class="cls-2" d="M58.12,29.23s-.38-.12-.51-.14c-.04,0-.45.36-.49.43-.01.03-.49.11-.5.16,0,.1-.02.44.04.5.08.08-.21.56-.23.59-.1.09.37.46.55.4.1-.03.89-.36.93-.42.13-.19.13-.7.12-.75,0-.07.26-.48.19-.61-.03-.06-.06-.11-.1-.16Z"/>
    <path class="cls-2" d="M39.05,14.5s.05.02.07.04c.1.05.11.12-.08.23-.06.03-.06.06-.03.09.04.03.13.02.2,0,.13-.04.81-.4.85-.43.09-.05.08-.16.13-.19.02-.01-.08-.15-.05-.19.06-.05,0-.09-.11-.09-.07,0-1.01.36-1.05.38-.04.01-.08.03-.11.05-.09.05-.08.09,0,.09.07,0,.17.02.17.03Z"/>
    <path class="cls-2" d="M30.06,45.84c-.09-.04-.18-.09-.25-.15-.09-.07-.19-.14-.29-.18-.05-.02-.97-.43-1.02-.41-.17.06-.73.43-.83.58,0,0,.02.03.03.03.05,0,.79-.31.81-.25.03.08.32.19.41.22.06.02,1.06.64,1.07.65.04.02,0,.34.05.34.09,0,.72-.02.94-.08.05-.01-.65-.62-.93-.75Z"/>
    <path class="cls-2" d="M31.2,47.44c.08,0,.43.01.52.03.09.02.26.19.28.18.02,0,1.07-.33,1.09-.37,0-.02-.35-.33-.49-.47-.04-.04-.53-.2-.72-.11-.07.03-.24-.1-.27-.12-.05-.03-.12,0-.16.09-.02.04.16.5.08.46-.07-.04-.38.3-.32.3Z"/>
    <path class="cls-2" d="M39.69,14.83s.55,0,.58,0c.07-.03.1-.07.18-.1t0,0s0,0,0,0c0,0,.15-.1.12-.14-.03-.05-.03-.19-.03-.2,0-.02-.55.15-.63.25-.03.04-.21.17-.23.21Z"/>
    <path class="cls-2" d="M37.44,16.66s.04,0,.06.02c.06.02.51-.33.53-.37.05-.07.05-.13,0-.17-.03-.03-.1-.02-.16-.01-.04,0-.08,0-.12.01-.12.08-.26.15-.4.22-.09.05.02.26.08.31Z"/>
    <path class="cls-2" d="M37.75,16.13s0,0,0,0h0s0,0,.01,0c0,0-.01,0-.02,0Z"/>
    <path class="cls-2" d="M37.57,14.29c.1,0,.09.04.14.06.11.04.34-.01.45-.09.03-.02.06-.05.09-.07,0,0,.02-.01.02-.02.07-.06.04-.09-.09-.08-.12.01-.23.03-.34.03-.08,0-.18.01-.27.02-.04,0-.08.02-.12.03-.02,0-.05.02-.06.03,0,0,0,.03,0,.03.09,0,.16.02.17.06Z"/>
    <path class="cls-2" d="M63.58,37c.07.2.07.41.08.62,0,.31.17.38.45.2.07-.04.11-.09.11-.17,0-.11,0-.21,0-.32h.01c0-.07,0-.14,0-.21,0-.05,0-.11,0-.16-.02-.17-.2-.38-.41-.23-.06.04-.12.07-.18.11-.05.03-.07.09-.05.14Z"/>
    <path class="cls-2" d="M38.19,21.08s.02-.12-.03-.15c-.08-.05-.2-.04-.31.02-.18.1-.33.23-.45.38,0,.01-.01.02-.02.03-.06.11-.02.19.11.19.23,0,.42-.11.57-.3.04-.06.09-.12.13-.18Z"/>
    <path class="cls-2" d="M39.88,15.19c.07,0,.14-.03.2-.06.03-.01.06-.05.05-.06-.09-.07-.2-.12-.4-.12-.08,0-.19.03-.27.09-.04.03-.05.06-.03.07.1.05.24.07.4.08.01,0,.03,0,.04,0Z"/>
    <path class="cls-2" d="M75.79,20.82c.18-.04.24-.15.26-.29,0-.02-.02-.05-.04-.07-.11-.09-.25-.13-.39-.13-.07,0-.14.05-.15.11,0,.03,0,.07,0,.12.02.04.04.1.08.16.04.07.15.11.24.09Z"/>
    <path class="cls-2" d="M34.12,24.18c-.09,0-.14.01-.2.03-.04,0-.08.02-.12.05-.07.06-.15.12-.21.18-.03.03-.05.08-.04.11,0,.03.02.07.06.08.05,0,.1,0,.16-.01.17-.06.32-.17.45-.31.02-.02.03-.06.03-.08,0-.02-.02-.04-.04-.05-.03,0-.08,0-.08,0Z"/>
    <path class="cls-2" d="M36.55,31.95s-.03.08,0,.12c.02.02.04.04.05.06.07.09.14.18.24.22.11.04.22.06.33.09.01,0,.03,0,.04,0,.02-.02.05-.04.06-.06,0-.01,0-.03,0-.05-.14-.25-.36-.38-.66-.41-.01,0-.04,0-.07.03Z"/>
    <path class="cls-2" d="M74.53,40c.14-.07.17-.21.22-.34-.01-.02-.03-.04-.04-.04-.14.02-.27.04-.41.06-.13.02-.23.08-.33.15-.05.03-.06.14-.01.19.08.09.18.13.28.1.1-.02.2-.07.29-.12Z"/>
    <path class="cls-2" d="M64.02,36.53s.06-.09.07-.14c.02-.1.03-.21.04-.27,0-.07,0-.1-.01-.14,0-.02,0-.03-.01-.05,0-.08-.07-.12-.14-.09-.06.03-.13.05-.19.09-.08.05-.1.14-.1.23.01.14.07.27.15.38.03.05.16.05.19,0Z"/>
    <path class="cls-2" d="M29.76,47.25s-.04.05-.02.07c.12.21.28.3.48.23.04-.02.07-.03.11-.05.03-.02.04-.09.02-.12-.1-.15-.22-.18-.39-.18-.05,0-.13.02-.2.04Z"/>
    <path class="cls-2" d="M70.81,39.97c.15-.02.29-.04.43-.06.01,0,.04-.02.04-.03,0-.03-.01-.07-.03-.08-.12-.09-.25-.14-.39-.13-.16,0-.31,0-.47-.03-.03,0-.07.01-.1.03-.03.02-.05.05-.05.08,0,.03.02.08.03.09.17.05.34.09.51.13.02,0,.03,0,.04,0Z"/>
    <path class="cls-2" d="M33.52,47.36s-.05.07-.06.11c-.01.03.03.1.06.12.03.01.05.03.08.04.16.04.3.01.43-.09.03-.02.03-.05,0-.08-.03-.04-.06-.08-.1-.09-.05-.02-.11-.02-.19-.03-.06,0-.15.01-.22.03Z"/>
    <path class="cls-2" d="M37.7,15.03c.14-.07.2-.15.29-.23,0-.02.03-.03.04-.05,0,0,0-.02-.02-.02-.02,0-.06,0-.08.02-.1.05-.2.11-.29.17-.04.03-.06.06-.08.08,0,.02,0,.03.02.05.01.01.08,0,.1-.01Z"/>
    <path class="cls-2" d="M34.38,24.91s.04.05.06.07c.04-.01.07-.02.09-.04.06-.07.13-.14.19-.21.02-.02.03-.05.05-.08.03-.05.03-.11,0-.14-.03-.03-.09-.03-.15,0-.15.09-.25.25-.24.39Z"/>
    <path class="cls-2" d="M55.86,17.27s-.04.05-.05.08c-.02.05,0,.1.06.12.08.03.16.03.25,0,.01,0,.02-.02.03-.02,0,0,.02-.02.02-.03-.03-.05-.05-.1-.08-.15-.03-.05-.17-.05-.22,0Z"/>
    <path class="cls-2" d="M41.47,13.92c.09-.03.18-.06.25-.09.02,0,.02-.02.02-.03-.01-.02-.05-.02-.1-.02-.12.01-.28.06-.26.1,0,.01,0,.03,0,.04,0,.01.06.01.09,0Z"/>
    <path class="cls-2" d="M40.34,15.36c.07-.02.13-.05.16-.08.05-.06,0-.1-.08-.09-.03,0-.06.01-.08.02-.09.04-.14.09-.18.14,0,0,0,.01,0,.01.04.02.1.02.17,0Z"/>
    <path class="cls-2" d="M38.7,14.85c.06,0,.15-.04.17-.07.04-.05,0-.09-.11-.09-.07,0-.18.05-.19.09,0,.05.03.07.12.07Z"/>
    <path class="cls-2" d="M36.56,14.78s.09,0,.14,0c.09,0,.18-.03.28-.07.08-.03.15-.07.2-.11.04-.03.09-.05.15-.06.07-.02.14-.04.21-.06.03,0,.04-.03.04-.03,0,0,0-.02-.02-.03-.13-.02-.27-.03-.42-.03-.08,0-.16.02-.25.04-.15.09-.29.17-.44.26,0,.02.02.04.02.05,0,.02.04.03.09.03Z"/>
    <path class="cls-2" d="M32.9,28.19c-.07.03-.09.08-.09.14,0,.02,0,.03,0,.05,0,.06.05.1.1.08.1-.03.19-.09.26-.18.02-.02.02-.06.01-.08-.01-.06-.06-.09-.11-.07-.06.02-.11.04-.16.07Z"/>
    <path class="cls-2" d="M36.26,16.97s.04-.03.05-.05c0,0,0-.01-.02-.02-.09-.02-.2,0-.3.02-.09,0-.15.06-.2.11.09.01.2.02.31,0,.05-.01.11-.04.16-.06Z"/>
    <path class="cls-2" d="M36,16.12c.06-.04.08-.08.08-.11,0-.01-.02-.02-.05-.01-.1.02-.2.07-.25.12-.03.03,0,.06.03.06.06,0,.13-.02.19-.06Z"/>
    <path class="cls-2" d="M63.44,15.35s-.04.02-.04.03c.01.1.12.18.28.24,0,0,.02,0,.03-.01,0,0,.02-.02.01-.02-.05-.09-.18-.15-.25-.23,0,0-.03,0-.04,0Z"/>
    <path class="cls-2" d="M31.63,30.05s-.06.06-.09.1c0,.02,0,.07.01.07.06.02.12.04.15.05.04,0,.06,0,.07,0,.02,0,.05-.02.07-.04.03-.02.03-.09.02-.12-.04-.08-.14-.11-.23-.06Z"/>
    <path class="cls-2" d="M35.58,50.76s0,.06,0,.09c0,.07.05.13.11.13.08,0,.14-.05.14-.14,0-.08-.05-.16-.13-.18-.06-.01-.11.03-.12.09Z"/>
    <path class="cls-2" d="M57.86,27.74s0,.02-.01.02c0,0,.02,0,.02-.01h0s0-.01-.01,0Z"/>
    <path class="cls-2" d="M58.14,27.5s0-.06-.03-.08c-.01,0-.03,0-.04,0-.09.02-.16.07-.18.15-.01.06-.01.11-.01.17.03,0,.06-.02.08-.03.1-.05.15-.12.18-.22Z"/>
    <path class="cls-2" d="M37.44,25.85s-.02.03-.01.04c.02.02.04.03.07.04.04-.02.08-.04.11-.07.02-.02.03-.05.03-.08,0-.04-.06-.06-.1-.03-.04.03-.07.06-.1.1Z"/>
    <path class="cls-2" d="M37.74,15.4h.01s0,0,0,0c0,0,0,0-.02,0Z"/>
    <path class="cls-2" d="M38.68,25.18s0,.07.02.1c0,.02.05.03.07.02.03-.02.06-.06.09-.09,0-.05,0-.09,0-.13,0-.01,0-.03-.01-.03-.02,0-.05,0-.07.03-.03.03-.08.07-.09.1Z"/>
    <path class="cls-2" d="M37.65,16.15s-.07-.06-.18-.04c0,.09,0,.09.18.04Z"/>
    <path class="cls-2" d="M37.47,16.11s0,0,0,0h0s0,0,0,0c0,0,0,0,.01,0Z"/>
    <path class="cls-2" d="M76.13,19.2s0,.02.02.03c.04.03.09.07.14.09.02.01.05,0,.08,0,.04,0,.03-.05,0-.09-.04-.03-.09-.07-.16-.07-.02,0-.05.02-.07.03Z"/>
    <polygon class="cls-2" points="41.64 16.21 41.64 16.21 41.63 16.21 41.63 16.22 41.64 16.21"/>
    <path class="cls-2" d="M31.09,45.44s0,0,.01,0c0,0,0,0,0-.01,0,0,0,0-.01,0,0,0,0,0,0,.02Z"/>
    <path class="cls-2" d="M26.43,42.37s0,0,0-.01c0,0,0,0,0,0,0,0,0,0,0,0,0,0,0,0,0,0Z"/>
    <path class="cls-2" d="M37.31,20.91h.02s0-.01,0-.02c0,0-.01.01-.02.02Z"/>
    <path class="cls-2" d="M41.65,14.84s-.02-.01-.03-.02c0,.02-.02.03,0,.03,0,0,.02-.01.02-.02Z"/>
    <path class="cls-2" d="M32.48,19.7s0,0,.01,0c0,0,0,0,0,0h0s0,.01,0,.02Z"/>
    <path class="cls-2" d="M69.02,38.5s0,0-.01.01c0,0,.02,0,.02,0h0s0-.01-.01-.02Z"/>
    <path class="cls-2" d="M64.53,35.75s0,0-.01.01c0,0,.02,0,.03,0,0,0,0,0,0,0,0,0,0,0,0,0Z"/>
    <path class="cls-2" d="M58.12,28.81s0,0,.02,0h0s0,0-.01-.01c0,0,0,0,0,0Z"/>
    <path class="cls-2" d="M37.03,20.25h0s0,0,0,0c0,0,0-.01,0-.02,0,0-.01,0-.02.01Z"/>
    <path class="cls-2" d="M67.49,19.92s0,0,0-.01t-.02,0s0,0,0,0h0Z"/>
    <path class="cls-2" d="M66.29,39.53s.02,0,.03,0c0,0,0-.02,0-.03,0,0-.01.02-.02.03Z"/>
    <path class="cls-2" d="M34.89,47.55s0-.02-.01-.03c0,0,0,.02-.01.03,0,0,.02,0,.02,0Z"/>
    <path class="cls-2" d="M54.59,13.37s0,0,.02,0c0,0,0,0,0,0,0,0-.01,0-.02,0Z"/>
    <path class="cls-2" d="M47.71,14.1s-.02,0-.03,0c0,0,.01,0,.02,0,0,0,0,0,.01,0Z"/>
    <path class="cls-2" d="M38.09,15.37s-.02,0-.03,0c0,0,0,0,0,0h0s.02,0,.03-.01Z"/>
    <path class="cls-2" d="M67.04,14.64s0,0-.01,0c0,0,0,0,0,0,0,0,0,0,0,0,0,0,0,0,0,0Z"/>
  </g>
</svg>