<svg xmlns="http://www.w3.org/2000/svg" id="Livello_1" version="1.1" viewBox="0 0 350 350" class="logo">
  <defs>
    <style>
      .st0 {
        fill: #fff;
      }
    </style>
  </defs>
  <path class="st0" d="M126.2,59.3c14.6,0,26.5-12.3,26.5-27.4s-11.9-27.5-26.5-27.5-26.5,12.3-26.5,27.5,11.9,27.4,26.5,27.4"></path>
  <path class="st0" d="M224.5,59.3c14.7,0,26.5-12.3,26.5-27.4s-11.9-27.5-26.5-27.5-26.5,12.3-26.5,27.5,11.9,27.4,26.5,27.4"></path>
  <path class="st0" d="M15.9,105.3v24.2h32.3v88.2h28.4v-88.2h32.6v-24.2H15.9ZM123.5,105.3v24.2h32.3v88.2h28.4v-88.2h32.6v-24.2h-93.2ZM303.2,188.7c-6.5,3.4-13.3,5.3-18.8,5.3-17.7,0-31-14-31-32.4s13.2-32.2,30.7-32.2,20.9,4.8,28.7,12.4l16.1-20.5c-11.2-10.3-28.4-16.7-44.7-16.7-34.4,0-60,24.4-60,57.1s25,57.4,58.2,57.4,33.7-6.1,45.3-14.4v-44.3h-24.5v28.4Z"></path>
  <path class="st0" d="M14.6,311.6v33.7h23.8v-5.1h-18.3v-9.3h15.9v-5h-15.9v-9.2h17.8v-5.1H14.6ZM45.2,311.6l11,16.4-11.8,17.3h6.4l8.7-12.7,8.8,12.7h6.6l-11.9-17.5,10.9-16.2h-6.4l-8,11.7-7.9-11.7h-6.4ZM95.8,311.6h-13v33.7h5.5v-10.2h7.5c8.2,0,12.9-4.4,12.9-12s-4.7-11.5-12.9-11.5M95.6,330.1h-7.3v-13.3h7.3c5,0,7.9,2.1,7.9,6.6s-2.8,6.8-7.9,6.8M116.9,311.6v33.7h23.8v-5.1h-18.3v-9.3h15.9v-5h-15.9v-9.2h17.7v-5.1h-23.2ZM177.1,345.3l-7.3-11.3c4.3-1.7,6.7-5.5,6.7-10.9s-4.8-11.5-13.1-11.5h-13.2v33.7h5.5v-10.2h7.7c.5,0,1,0,1.5,0l6,10.2h6.2ZM155.7,330.1v-13.3h7.7c5,0,7.9,2.1,7.9,6.6s-2.9,6.8-7.9,6.8h-7.7ZM186.7,345.3h5.5v-33.7h-5.5v33.7ZM203.5,311.6v33.7h23.8v-5.1h-18.3v-9.3h15.9v-5h-15.9v-9.2h17.7v-5.1h-23.2ZM236.8,311.6v33.7h5.5v-24.1l17.4,24.1h5.4v-33.7h-5.4v24.2l-17.4-24.2h-5.4ZM299.9,320.8l3.2-4.1c-3.2-3.2-7.8-5.2-12.4-5.2-9.6,0-17.1,7.4-17.1,16.9s7.4,17.1,16.9,17.1,9.3-2.2,12.6-5.5l-3.3-3.7c-2.5,2.5-5.8,4-9.1,4-6.5,0-11.6-5.3-11.6-11.9s5.1-11.8,11.6-11.8,6.7,1.6,9.1,4.3M311.6,311.6v33.7h23.8v-5.1h-18.3v-9.3h15.9v-5h-15.9v-9.2h17.8v-5.1h-23.2Z"></path>
  <path class="st0" d="M77.5,253.9v5.1h10.3v28.6h5.5v-28.6h10.3v-5.1h-26.1ZM138,287.6l-7.3-11.3c4.3-1.7,6.7-5.5,6.7-10.9s-4.8-11.5-13.1-11.5h-13.2v33.7h5.5v-10.2h7.7c.5,0,1,0,1.5,0l6,10.2h6.2ZM116.6,272.3v-13.3h7.7c5,0,7.9,2.1,7.9,6.5s-2.9,6.8-7.9,6.8h-7.7ZM171.6,287.6h5.9l-14.2-33.7h-5.6l-14.4,33.7h5.7l3.1-7.6h16.4l3.1,7.6ZM154.2,274.9l6.1-15,6.1,15h-12.3ZM178.2,253.9l13,33.7h5.7l13.2-33.7h-5.7l-10.2,27.4-10-27.4h-5.9ZM217.2,253.9v33.7h23.8v-5.1h-18.3v-9.3h15.9v-5h-15.9v-9.1h17.8v-5.1h-23.2ZM250.5,253.9v33.7h19.6v-5.1h-14.1v-28.5h-5.5Z"></path>
</svg>
